<?xml version="1.0" encoding="iso-8859-1"?>
<!-- Generator: Adobe Illustrator 19.0.0, SVG Export Plug-In . SVG Version: 6.00 Build 0)  -->
<svg version="1.1" id="Layer_1" xmlns="http://www.w3.org/2000/svg" xmlns:xlink="http://www.w3.org/1999/xlink" x="0px" y="0px"
	 viewBox="0 0 502.776 502.776" style="enable-background:new 0 0 502.776 502.776;" xml:space="preserve">
<g id="XMLID_1036_">
	<g id="XMLID_936_">
		<g id="XMLID_1035_">
			<path style="fill:#5EBAE7;" d="M497.751,189.138L229.692,457.197c-50.652,50.652-132.775,50.652-183.427,0l0,0
				c-50.652-50.652-50.652-132.775,0-183.427L314.324,5.711l65.383,118.044L497.751,189.138"/>
		</g>
		<g id="XMLID_691_">
			<circle style="fill:#89CC86;" cx="137.294" cy="365.483" r="80.761"/>
		</g>
		<g id="XMLID_718_">
			<circle style="fill:#3AAA35;" cx="125.872" cy="376.905" r="16.152"/>
		</g>
		<g id="XMLID_825_">
			<circle style="fill:#3AAA35;" cx="160.136" cy="308.376" r="16.152"/>
		</g>
		<g id="XMLID_861_">
			<circle style="fill:#3AAA35;" cx="182.979" cy="411.169" r="16.152"/>
		</g>
		<g id="XMLID_642_">
			<path style="fill:#1D1D1B;" d="M137.294,502.776c-36.673,0-71.15-14.28-97.082-40.212C14.28,436.633,0,402.156,0,365.483
				s14.28-71.15,40.212-97.082L308.613,0l11.422,11.422L51.634,279.823c-22.881,22.881-35.482,53.302-35.482,85.66
				s12.602,62.779,35.482,85.659c22.881,22.881,53.302,35.482,85.66,35.482s62.779-12.602,85.659-35.482l268.401-268.401
				l11.422,11.422L234.375,462.564C208.443,488.496,173.967,502.776,137.294,502.776z"/>
		</g>
		<g id="XMLID_643_">
			
				<rect x="229.155" y="3.308" transform="matrix(-0.7071 -0.7071 0.7071 -0.7071 314.1245 387.0891)" style="fill:#FFFFFF;" width="16.153" height="250.358"/>
		</g>
		<g id="XMLID_645_">
			
				<rect x="189.179" y="202.034" transform="matrix(-0.7071 -0.7071 0.7071 -0.7071 185.3105 505.0546)" style="fill:#1D1D1B;" width="16.153" height="24.228"/>
		</g>
		<g id="XMLID_646_">
			
				<rect x="271.982" y="39.736" transform="matrix(-0.7071 -0.7071 0.7071 -0.7071 352.9124 500.2366)" style="fill:#FFFFFF;" width="16.153" height="274.584"/>
		</g>
		<g id="XMLID_650_">
			
				<rect x="240.575" y="217.78" transform="matrix(-0.7071 -0.7071 0.7071 -0.7071 244.7832 609.6359)" style="fill:#1D1D1B;" width="16.153" height="72.684"/>
		</g>
		<g id="XMLID_652_">
			
				<rect x="317.669" y="289.854" transform="matrix(-0.7071 -0.7071 0.7071 -0.7071 333.9932 766.5089)" style="fill:#FFFFFF;" width="16.153" height="48.457"/>
		</g>
		<g id="XMLID_654_">
			
				<rect x="297.684" y="211.663" transform="matrix(-0.7071 -0.7071 0.7071 -0.7071 318.0464 708.5093)" style="fill:#1D1D1B;" width="16.153" height="153.445"/>
		</g>
		<g id="XMLID_656_">
			
				<rect x="234.865" y="285.326" transform="matrix(-0.7071 -0.7071 0.7071 -0.7071 198.694 693.3351)" style="fill:#FFFFFF;" width="16.153" height="40.381"/>
		</g>
		<g>
			<path style="fill:#1D1D1B;" d="M200.111,302.666c-16.779-16.779-39.088-26.02-62.817-26.02s-46.038,9.241-62.818,26.02
				c-16.779,16.779-26.019,39.088-26.019,62.817s9.24,46.038,26.019,62.817c17.319,17.318,40.069,25.977,62.818,25.977
				s45.498-8.659,62.817-25.977c16.778-16.779,26.02-39.088,26.02-62.817S216.89,319.445,200.111,302.666z M165.847,314.087
				c-3.148,3.15-8.272,3.15-11.421,0c-3.149-3.148-3.149-8.273,0-11.421c1.574-1.575,3.643-2.362,5.711-2.362
				c2.067,0,4.136,0.787,5.71,2.362C168.996,305.814,168.996,310.939,165.847,314.087z M177.269,416.879
				c-3.149-3.148-3.149-8.272,0-11.421c1.574-1.575,3.643-2.362,5.71-2.362c2.068,0,4.137,0.787,5.711,2.362
				c3.149,3.148,3.149,8.272,0,11.421C185.542,420.029,180.418,420.031,177.269,416.879z M202.73,397.179
				c-0.779-1.099-1.635-2.159-2.619-3.143c-9.447-9.445-24.817-9.446-34.265,0c-9.446,9.447-9.446,24.817,0,34.265
				c0.973,0.973,2.022,1.821,3.108,2.593c-11.196,5.407-23.494,7.785-35.664,7.12l15.424-15.424l-11.422-11.422l-22.842,22.843
				l0.658,0.658c-8.251-2.631-16.121-6.76-23.176-12.404l11.097-11.096l-11.422-11.422L80.51,410.845
				c-7.323-9.131-12.277-19.769-14.521-31.163l19.909-19.91L74.476,348.35l-9.46,9.46c1.722-16.514,8.979-31.82,20.882-43.723
				c13.729-13.729,31.981-21.29,51.396-21.29c1.404,0,2.799,0.051,4.189,0.13c-7.886,9.509-7.385,23.675,1.521,32.581
				c4.724,4.723,10.928,7.085,17.133,7.085c6.204,0,12.408-2.362,17.132-7.085c4.3-4.301,6.62-9.83,7.005-15.467
				c1.514,1.287,2.995,2.626,4.415,4.047c3.892,3.892,7.27,8.159,10.139,12.702l-32.982,32.983l11.422,11.422l28.921-28.922
				c2.48,7.383,3.789,15.195,3.789,23.211C209.979,376.648,207.466,387.422,202.73,397.179z"/>
			<path style="fill:#1D1D1B;" d="M108.74,359.772c-9.445,9.446-9.446,24.816,0,34.265c4.724,4.723,10.928,7.085,17.132,7.085
				c6.205,0,12.409-2.362,17.133-7.086c9.446-9.447,9.445-24.817,0-34.264C133.558,350.327,118.188,350.327,108.74,359.772z
				 M131.583,382.615c-3.146,3.15-8.271,3.15-11.421,0.001c-3.148-3.149-3.148-8.273,0-11.422c1.574-1.575,3.643-2.362,5.711-2.362
				c2.067,0,4.136,0.787,5.71,2.362C134.731,374.343,134.731,379.467,131.583,382.615z"/>
			
				<rect x="89.233" y="328.866" transform="matrix(-0.7071 0.7071 -0.7071 -0.7071 404.3703 506.3876)" style="fill:#1D1D1B;" width="16.152" height="16.152"/>
		</g>
	</g>
	<g id="XMLID_1037_">
		
			<rect x="320.524" y="135.059" transform="matrix(-0.7071 -0.7071 0.7071 -0.7071 405.4931 607.6767)" style="fill:#1D1D1B;" width="16.153" height="169.597"/>
	</g>
	<g id="XMLID_1038_">
		
			<rect x="297.681" y="168.749" transform="matrix(-0.7071 -0.7071 0.7071 -0.7071 382.6507 552.5289)" style="fill:#FFFFFF;" width="16.153" height="56.532"/>
	</g>
	<g id="XMLID_1039_">
		
			<rect x="234.864" y="132.12" transform="matrix(-0.7071 -0.7071 0.7071 -0.7071 295.6044 459.3674)" style="fill:#1D1D1B;" width="16.153" height="72.683"/>
	</g>
	<g id="XMLID_1040_">
		
			<rect x="120.652" y="224.877" transform="matrix(-0.7071 -0.7071 0.7071 -0.7071 52.1758 495.5943)" style="fill:#1D1D1B;" width="16.153" height="24.229"/>
	</g>
	<g id="XMLID_1042_">
		
			<rect x="403.326" y="126.206" transform="matrix(-0.7071 -0.7071 0.7071 -0.7071 573.0922 602.8595)" style="fill:#FFFFFF;" width="16.153" height="113.065"/>
	</g>
</g>
<g>
</g>
<g>
</g>
<g>
</g>
<g>
</g>
<g>
</g>
<g>
</g>
<g>
</g>
<g>
</g>
<g>
</g>
<g>
</g>
<g>
</g>
<g>
</g>
<g>
</g>
<g>
</g>
<g>
</g>
</svg>
